# xmcd
#
# Track frame offsets: 
#        150
#        10650
#        27569
#        43214
#        62939
#        82190
#        94725
#        109134
#        124332
#        134181
#        148589
#        159300
#        175564
#        188125
#        205728
#        217956
#        233316
#        246837
#        257652
#        274230
#
# Disc length: 3815 seconds
#
# Revision: 1
# Processed by: cddbd v1.5.2PL0 Copyright (c) Steve Scherf et al.
# Submitted via: ExactAudioCopyFreeDBPlugin 1.0
#
DISCID=220ee514
DTITLE=Daniel O'Donnell - Country Boy
DYEAR=2008
DGENRE=Country
TTITLE0=I'm Going To Be A Country Boy Again
TTITLE1=If I Said You Had A Beautiful Body Would You Hold It Against M
TTITLE1=e
TTITLE2=Lucille
TTITLE3=Back Home Again
TTITLE4=Me And Bobby McGee
TTITLE5=King Of The Road
TTITLE6=Little Old Wine Drinker Me
TTITLE7=Release Me
TTITLE8=From Here To There To You
TTITLE9=Detroit City
TTITLE10=I Wanna Be Free (with Loretta Lynn)
TTITLE11=Mother's Birthday Song
TTITLE12=Crystal Chandeliers (with Charley Pride)
TTITLE13=Seven Spanish Angels
TTITLE14=Ring Of Fire
TTITLE15=He Stopped Loving Her Today
TTITLE16=Okie From Muskogee
TTITLE17=I'm Just Lucky I Guess
TTITLE18=Could I Have This Dance For The Rest Of My Life
TTITLE19=Oh Lonesome Me
EXTD=
EXTT0=
EXTT1=
EXTT2=
EXTT3=
EXTT4=
EXTT5=
EXTT6=
EXTT7=
EXTT8=
EXTT9=
EXTT10=
EXTT11=
EXTT12=
EXTT13=
EXTT14=
EXTT15=
EXTT16=
EXTT17=
EXTT18=
EXTT19=
PLAYORDER=
